<svg height="498pt" viewBox="0 -5 498.55988 498" width="498pt" xmlns="http://www.w3.org/2000/svg"><path d="m57.238281 96.28125v144c.027344 71.105469 33.742188 137.996094 90.882813 180.320312 12.457031 9.285157 25.863281 17.222657 40 23.679688l61.117187 28 61.121094-28c14.132813-6.457031 27.542969-14.394531 40-23.679688 57.140625-42.324218 90.855469-109.214843 90.878906-180.320312v-144l-192-88zm360 144c-.132812 78.308594-45.75 149.402344-116.878906 182.160156l-51.121094 23.4375-51.117187-23.4375c-71.128906-32.757812-116.746094-103.851562-116.882813-182.160156v-128.5625l168-77.039062 168 77.039062zm0 0" fill="#5aaae7"/><path d="m164.839844 160.441406 74.878906 56.71875-46.320312 47.761719-45.199219-17.042969-7.839844 7.839844 39.601563 29.921875 7.277343 7.28125 29.042969 38.796875 7.839844-7.839844-16.242188-44.476562 47.679688-46.320313 56.160156 74.078125 15.761719-15.757812-37.519531-90.480469 36.640624-31.921875c.3125-.242188.605469-.511719.878907-.800781 4.273437-4.320313 5.863281-10.628907 4.148437-16.460938-1.71875-5.832031-6.46875-10.273437-12.40625-11.589843-5.933594-1.316407-12.117187.695312-16.144531 5.253906l-32 36.71875-90.398437-37.519532zm0 0" fill="#5aaae7"/><g fill="#1a6fb0"><path d="m425.238281 111.6875c0-3.125-1.820312-5.964844-4.664062-7.269531l-168-77c-2.117188-.972657-4.550781-.972657-6.671875 0l-168 77c-2.839844 1.304687-4.664063 4.144531-4.664063 7.269531v128.601562c.148438 81.445313 47.613281 155.382813 121.601563 189.429688l51.097656 23.417969c2.117188.972656 4.550781.972656 6.671875 0l51.03125-23.417969c73.992187-34.046875 121.453125-107.988281 121.597656-189.4375zm-16 128.59375c-.121093 75.191406-43.925781 143.460938-112.230469 174.902344l-47.769531 21.90625-47.765625-21.90625c-68.300781-31.441406-112.109375-99.703125-112.234375-174.894532v-123.472656l160-73.335937 160 73.335937zm0 0"/><path d="m496.175781 396.703125-65.601562-65.644531c12.28125-28.691406 18.628906-59.570313 18.664062-90.777344v-144c0-3.128906-1.820312-5.96875-4.664062-7.273438l-192-88c-2.117188-.9726558-4.550781-.9726558-6.671875 0l-192 88c-2.839844 1.304688-4.664063 4.144532-4.664063 7.273438v144c.050781 31.210938 6.414063 62.085938 18.707031 90.777344l-65.601562 65.644531c-2.015625 2.019531-2.808594 4.957031-2.074219 7.710937.730469 2.757813 2.875 4.917969 5.625 5.667969l57.832031 15.75 15.753907 57.832031c.757812 2.742188 2.914062 4.875 5.664062 5.601563.671875.171875 1.363281.261719 2.054688.261719 2.121093 0 4.15625-.84375 5.65625-2.34375l56.257812-56.253906c11.273438 7.914062 23.234375 14.804687 35.734375 20.589843l61.097656 28c2.117188.972657 4.554688.972657 6.671876 0l61.09375-28c12.503906-5.785156 24.464843-12.675781 35.738281-20.589843l56.253906 56.253906c1.5 1.5 3.535156 2.34375 5.65625 2.34375.695313 0 1.386719-.089844 2.054687-.261719 2.75-.726563 4.90625-2.859375 5.664063-5.601563l15.753906-57.832031 57.832031-15.75c2.75-.75 4.894532-2.910156 5.628907-5.667969.730469-2.753906-.058594-5.691406-2.078125-7.710937zm-404.917969 69.449219-13.335937-48.9375c-.75-2.722656-2.878906-4.851563-5.601563-5.597656l-48.953124-13.351563 51.808593-51.808594c14.886719 28.910157 35.65625 54.394531 60.96875 74.808594zm215.75-29.144532-57.769531 26.472657-57.765625-26.472657c-76.820312-35.371093-126.089844-112.15625-126.234375-196.726562v-138.863281l184-84.335938 184 84.335938v138.863281c-.140625 84.570312-49.410156 161.355469-126.230469 196.726562zm119.199219-25.40625c-2.722656.746094-4.851562 2.875-5.597656 5.597657l-13.335937 48.9375-44.890626-44.886719c25.316407-20.417969 46.082032-45.898438 60.96875-74.808594l51.808594 51.808594zm0 0"/><path d="m174.992188 138.9375-15.816407 15.816406c-1.625 1.628906-2.46875 3.882813-2.316406 6.179688s1.289063 4.417968 3.117187 5.820312l67.6875 51.285156-36.382812 37.503907-40.273438-15.140625c-2.9375-1.125-6.257812-.410156-8.472656 1.824218l-7.855468 7.847657c-1.636719 1.636719-2.480469 3.902343-2.320313 6.210937s1.3125 4.433594 3.160156 5.828125l39.046875 29.480469 6.578125 6.542969 28.734375 38.335937c1.386719 1.863282 3.515625 3.03125 5.832032 3.199219h.570312c2.121094 0 4.15625-.84375 5.65625-2.34375l7.855469-7.863281c2.203125-2.203125 2.925781-5.484375 1.855469-8.40625l-14.503907-39.585938 37.488281-36.375 50.671876 66.878906c1.394531 1.84375 3.519531 2.992188 5.824218 3.152344 2.300782.125 4.554688-.71875 6.207032-2.328125l15.769531-15.761719c2.289062-2.285156 2.972656-5.726562 1.734375-8.71875l-35.28125-85.121093 32.152344-28c.496093-.410157.96875-.847657 1.417968-1.308594 7.175782-7.171875 9.242188-18 5.203125-27.308594-4.035156-9.308593-13.351562-15.203125-23.492187-14.863281-6.851563.238281-13.300782 3.296875-17.816406 8.457031l-28.152344 32.328125-85.160156-35.304687c-2.992188-1.222657-6.425782-.539063-8.71875 1.738281zm102.152343 48.382812 31.917969-36.65625c1.585938-1.835937 3.871094-2.917968 6.296875-2.984374 2.417969-.136719 4.777344.789062 6.457031 2.535156 1.640625 1.636718 2.554688 3.863281 2.542969 6.179687-.039063 2.503907-1.117187 4.878907-2.976563 6.558594l-36.671874 31.96875c-2.589844 2.257813-3.453126 5.917969-2.136719 9.09375l35.464843 85.519531-5.496093 5.496094-50.589844-66.765625c-1.382813-1.828125-3.480469-2.976563-5.761719-3.152344-2.289062-.195312-4.550781.625-6.183594 2.238281l-47.464843 46.066407c-2.4375 2.183593-3.296875 5.628906-2.175781 8.703125l10.722656 29.296875-17.480469-23.296875c-.226563-.304688-.472656-.589844-.738281-.855469l-6.902344-6.898437c-.359375-.410157-.761719-.785157-1.199219-1.109376l-23.890625-18.03125 29.695313 11.199219c3.015625 1.132813 6.410156.351563 8.625-1.984375l46.265625-47.6875c1.597656-1.644531 2.414062-3.894531 2.238281-6.179687-.171875-2.285157-1.316406-4.390625-3.144531-5.773438l-67.582032-51.199219 5.542969-5.535156 85.527344 35.453125c3.191406 1.300781 6.855469.417969 9.097656-2.199219zm0 0"/></g></svg>